<svg xmlns="http://www.w3.org/2000/svg" viewBox="0 0 14.63 16"><g id="Layer_2" data-name="Layer 2"><g id="Layer_1-2" data-name="Layer 1" fill="#64c28e" ><path d="M9.36,13.57H5.41c-.11,0-.15,0-.17.14-.11.65-.24,1.3-.35,1.95a.36.36,0,0,1-.45.33c-.75-.1-1.5-.22-2.25-.31a.68.68,0,0,1-.47-.28L.18,13.55C0,13.28,0,13.23.12,12.92L1.87,9.69,6.94.32C7,.16,7.1,0,7.31,0s.3.16.39.32L11.32,7l3.16,5.84.07.13a.34.34,0,0,1,0,.48c-.52.63-1.06,1.26-1.57,1.89a.78.78,0,0,1-.58.33c-.72.09-1.43.2-2.15.3a.37.37,0,0,1-.48-.36c-.11-.64-.23-1.29-.35-1.93A.79.79,0,0,0,9.36,13.57Zm4.33-.7L10.94,7.78l-1.7.72c-.08,0-.07.08-.06.15.25,1.36.5,2.72.74,4.09,0,.11.07.13.18.13h3.59Zm-5.19-4-.06,0L6,9.89a.23.23,0,0,0-.11.14c0,.2-.07.4-.11.61-.13.74-.27,1.47-.4,2.22H9.24ZM6.57,2.52h0l-4.5,8.3.09,0L5.22,9.46a.22.22,0,0,0,.11-.15c.15-.81.3-1.61.44-2.41C6,5.44,6.3,4,6.57,2.52Zm1.81,5.6L7.33,2.38h0L6.08,9.1ZM5.16,10.27h0L2.22,11.51a.11.11,0,0,0-.08.14c0,.36.07.73.09,1.09,0,.11,0,.13.14.13H4.69Zm5.45-3.11L8.1,2.52h0L9,7.84Zm-6,6.42H2.3l.12,1.35s.06.08.1.08l1.11.17.62.08ZM12.14,15c-.08-.44-.15-.86-.21-1.28,0-.14-.08-.16-.2-.16H10.08l.31,1.69Zm.46-1.43.16.92.77-.92ZM1.54,12.86,1.47,12h0L1,12.86Zm-.44.72.53.62h0l0-.61Z"/></g></g></svg>