<svg xmlns="http://www.w3.org/2000/svg" viewBox="0 0 15.98 15.97"><g id="Layer_2" data-name="Layer 2"><g id="Layer_1-2" data-name="Layer 1" fill="#54b45b"><path d="M15.54,0H.44C.1,0,0,.08,0,.43Q0,8,0,15.57c0,.34.1.41.42.4H15.56c.32,0,.42-.07.42-.4Q16,8,16,.43C16,.07,15.88,0,15.54,0ZM5.34,11.44c-.89,0-.89,0-.89-.87V7.88c0-1.07,0-2.14,0-3.22,0-.26.07-.35.34-.35,1,0,1,0,1,.94,0,1.93,0,3.86,0,5.78C5.76,11.36,5.66,11.45,5.34,11.44Zm5.85,0h0c-.74,0-.74,0-.86-.74a2,2,0,0,1-2.35.73A2.28,2.28,0,0,1,6.46,9.34a3.61,3.61,0,0,1,.21-1.75,2.19,2.19,0,0,1,3.52-.82c0-.84,0-1.63,0-2.42,0-.33.1-.41.42-.41.9,0,.9,0,.91.9q0,3.14,0,6.25C11.52,11.35,11.47,11.48,11.19,11.44Z"/><path d="M9.24,7.21A1.18,1.18,0,0,0,7.93,8a2.35,2.35,0,0,0,0,1.65,1.17,1.17,0,0,0,2.3-.33c0-.16,0-.31,0-.46s0-.3,0-.45A1.18,1.18,0,0,0,9.24,7.21Z"/></g></g></svg>