<svg xmlns="http://www.w3.org/2000/svg" viewBox="0 0 13.35 15.92"><g id="Layer_2" data-name="Layer 2"><g id="Layer_1-2" data-name="Layer 1" fill="#54b45b"><path class="cls-1" d="M.72,13l4.63.53c1,.13,2,.25,3,.4.39.05.27-.22.27-.4q0-3,0-6.09V2.55L3.28,3.79c-.38.08-.29.34-.29.57C3,6.58,3,8.8,3,11a.67.67,0,0,1-.48.76c-.83.31-1.62.69-2.44,1C0,12.64,0,12.47,0,12.31,0,9.41,0,6.5,0,3.59A.55.55,0,0,1,.45,3Q4.38,1.55,8.29.07a1,1,0,0,1,.76,0c1.29.41,2.57.83,3.87,1.23a.51.51,0,0,1,.43.59q0,6.11,0,12.2c0,.33-.07.48-.42.58-1.32.38-2.63.8-3.95,1.2a.77.77,0,0,1-.54,0L.7,13.1Z"/></g></g></svg>