<svg xmlns="http://www.w3.org/2000/svg" viewBox="0 0 16.02 15.73"><g id="Layer_2" data-name="Layer 2"><g id="Layer_1-2" data-name="Layer 1" fill="#ffc534"><path d="M16,15Q16,7.87,16,.68V.36c0-.25-.14-.36-.39-.36H.82C0,0,0,0,0,.82V14.9c0,.14,0,.29,0,.43a.39.39,0,0,0,.24.4H15.77C16.09,15.58,16,15.29,16,15ZM7.46,8.33a3.12,3.12,0,0,1-2,.42c-.29,0-.39.06-.37.36,0,.6,0,1.21,0,1.81,0,.24-.06.33-.32.34-.93,0-.93,0-.93-.92V8c0-1,0-1.95,0-2.92,0-.29,0-.43.37-.45A7.6,7.6,0,0,1,7,4.68,1.77,1.77,0,0,1,8.36,6.25,2,2,0,0,1,7.46,8.33Zm3.37,3A3.45,3.45,0,0,1,9,11.15c-.2-.08-.29-.17-.19-.4a1,1,0,0,0,.08-.3c0-.27.16-.29.39-.18a2.14,2.14,0,0,0,1.06.2c.31,0,.58-.11.64-.44s-.15-.53-.43-.65S10,9.21,9.81,9.1c-.78-.38-1.09-.88-1-1.54a1.58,1.58,0,0,1,1.54-1.23h.32a2.45,2.45,0,0,1,.93.14c.21.07.34.15.22.4,0,0,0,.07,0,.1-.12.45-.12.45-.55.31a1.87,1.87,0,0,0-.81-.08.51.51,0,0,0-.47.41.47.47,0,0,0,.3.52c.27.13.56.24.84.37a1.42,1.42,0,0,1,1,1.44A1.46,1.46,0,0,1,10.83,11.29Z"/><path d="M6.26,5.49a3.44,3.44,0,0,0-.85,0c-.21,0-.32.09-.3.33s0,.56,0,.85,0,.59,0,.88,0,.26.23.28a2.47,2.47,0,0,0,1.08-.11,1.14,1.14,0,0,0,.74-1.2A1.06,1.06,0,0,0,6.26,5.49Z"/></g></g></svg>