<svg xmlns="http://www.w3.org/2000/svg" viewBox="0 0 13.03 15.96"><defs><style>.cls-1{fill:#54b45b;stroke:#54b45b;stroke-miterlimit:10;stroke-width:0.40px;}</style></defs><g id="Layer_2" data-name="Layer 2"><g id="Layer_1-2" data-name="Layer 1"  ><path class="cls-1" d="M7.68,8.22,9,9.62c1,1.05,2,2.11,3,3.16.25.27.53.53.78.81a.33.33,0,0,1,0,.39c-.26.52-.5,1-.75,1.56a.25.25,0,0,1-.39.12L9.2,14.33,7.14,13.25l-2.86-1.5a.22.22,0,0,0-.21,0c-.15.77-.31,1.55-.47,2.34-.1.51-.21,1-.31,1.54,0,.22-.15.26-.33.22l-.86-.19c-.58-.14-1.16-.29-1.74-.41-.2,0-.25-.14-.23-.32.2-1.39.39-2.79.59-4.19s.4-2.69.59-4,.38-2.75.56-4.12c0-.23.23-.28.38-.36.44-.26.9-.5,1.36-.74C4.41,1,5.22.61,6,.18a.28.28,0,0,1,.41.09L8.19,2.42c.63.76,1.24,1.55,1.89,2.3a.73.73,0,0,1,.1.66c-.1.67-.23,1.33-.33,2a.31.31,0,0,1-.27.3c-.55.14-1.1.3-1.64.45A2.06,2.06,0,0,0,7.68,8.22Zm-.48.11-.09,0L4.74,9c-.13,0-.15.12-.17.22-.12.6-.23,1.21-.37,1.81a.3.3,0,0,0,.19.41l3.4,1.78,3.83,2c.13.07.22.1.3-.07.18-.38.36-.77.55-1.15a.24.24,0,0,0-.05-.33L11,12.13,9,10.12C8.5,9.57,8,9,7.46,8.46A.3.3,0,0,0,7.2,8.33ZM6.26.7c-.07.39-.14.75-.21,1.11C5.8,3,5.55,4.28,5.29,5.51a.29.29,0,0,0,.06.28l2,2.05a.22.22,0,0,0,.24.07c.6-.17,1.2-.35,1.81-.51a.26.26,0,0,0,.21-.26c.09-.64.19-1.27.3-1.91a.37.37,0,0,0-.08-.32L8.31,3.08c-.49-.6-1-1.22-1.49-1.82C6.66,1.08,6.54.83,6.26.7ZM2.22,3,2.14,3,1.22,9.61A5.79,5.79,0,0,0,2,9.41l2.1-.57a.29.29,0,0,0,.24-.24c.16-.85.32-1.69.5-2.53a.44.44,0,0,0-.13-.46C4.17,5,3.61,4.41,3,3.81Zm-1,7.13a1,1,0,0,0-.11.37L.87,12c-.12.9-.25,1.8-.38,2.7,0,.15,0,.21.18.24.69.15,1.38.3,2.07.48.25.07.29-.06.32-.24.23-1.17.45-2.34.69-3.51a.24.24,0,0,0-.15-.31c-.27-.13-.53-.28-.8-.42ZM6,.66,5.88.61l-3.62,2L5,5.42ZM5.19,6.08,4.66,8.7,7,8.05C6.44,7.35,5.83,6.74,5.19,6.08ZM3.85,11.16c.14-.7.3-1.32.38-2-.93.23-1.8.45-2.65.73V10Z"/></g></g></svg>