<svg xmlns="http://www.w3.org/2000/svg" viewBox="0 0 16 11.99">><g id="Layer_2" data-name="Layer 2"><g id="Layer_1-2" data-name="Layer 1" fill="#ffc534"><path d="M6.1.61A6.31,6.31,0,0,1,8.31,4.14a.64.64,0,0,1-.37.72A11.73,11.73,0,0,1,5.21,6.2c-.27.09-.31.18-.17.43a4.9,4.9,0,0,1,.58,1.56,1.86,1.86,0,0,1-.13,1A5.77,5.77,0,0,0,3.42,6.58,3.2,3.2,0,0,0,.7,6C.27,6.06.05,5.9,0,5.47a1.34,1.34,0,0,1,.13-.74A.81.81,0,0,1,1,4.19a5.48,5.48,0,0,1,1.27.24c.15.05.2,0,.23-.13A4.33,4.33,0,0,0,2,1C1.88.75,1.91.66,2.17.56a6.56,6.56,0,0,1,2-.56c.42,0,.55.07.64.48a5.2,5.2,0,0,1-.4,3.13,6.83,6.83,0,0,1-.68,1.21c-.13.19-.1.29.07.42.51.4.51.42.88-.11A7.35,7.35,0,0,0,6,1.09c0-.15,0-.3,0-.44Z"/><path class="cls-1" d="M16,5.89c-.11-.12-.34.08-.49.17L14.09,7a9.31,9.31,0,0,1-2.24,1.15,1,1,0,0,1-.85,0c-.26-.12-.28-.26-.06-.43a1.91,1.91,0,0,0,.56-.61c.09-.15.27-.33.17-.47s-.32,0-.49,0l-.26.1A1.47,1.47,0,0,1,9.1,6c-.16-.31-.32-.62-.46-.94S8.48,4.85,8.32,5A9.33,9.33,0,0,1,6.43,6.05a1.79,1.79,0,0,0-.51.31.5.5,0,0,0,0,.71.78.78,0,0,1,.21.76A3.22,3.22,0,0,1,6,8.52c-.15.41,0,.64.38.86a25.37,25.37,0,0,1,2.81,2,7,7,0,0,0,.6.48c.09.06.2.15.32.06s.08-.24.05-.36a.81.81,0,0,0-.25-.33l-.31-.32c.26.06.37.3.68.27s.4.3.3.56a1.49,1.49,0,0,0,1-1.18,1,1,0,0,1,.28-.53,13.33,13.33,0,0,1,1.59-1.31,9.85,9.85,0,0,0,2.33-2.36C15.88,6.24,16.09,6,16,5.89Zm-5.44,2.6A2,2,0,0,0,9.59,8a1.13,1.13,0,0,0-1.31.75,2,2,0,0,1-.1.26c-.13.35-.2.37-.54.21S7.08,9,6.79,8.84a.56.56,0,0,1-.38-.59,1.63,1.63,0,0,0-.18-1,.83.83,0,0,1,.64.14c-.34.44-.34.44.11.76l.31.23c.45.32.51.35.83-.07a1.22,1.22,0,0,1,.94-.43A2.68,2.68,0,0,1,11.53,9.7,3.58,3.58,0,0,0,10.52,8.49Z"/></g></g></svg>