<svg xmlns="http://www.w3.org/2000/svg" viewBox="0 0 14.76 15.92"><g id="Layer_2" data-name="Layer 2"><g id="Layer_1-2" data-name="Layer 1" fill="#54b45b"><path class="cls-1" d="M14.51,3.69Q12.2,1.95,9.91.19C9.79.09,9.67,0,9.5,0H9.44L.25,1.29c-.3,0-.26.18-.23.39C.21,2.84.37,4,.58,5.18a42.31,42.31,0,0,0,.84,4.76c.58,1.9,1.22,3.78,1.83,5.67.09.29.18.37.49.28q4.77-1.41,9.54-2.77a.57.57,0,0,0,.47-.59c.33-2.75.66-5.49,1-8.24A.54.54,0,0,0,14.51,3.69Zm-8,7.5c-1,.21-1.94.44-2.9.67-.22.05-.32,0-.38-.23-.12-.41-.25-.81-.38-1.21-.06-.16-.05-.26.15-.31L5.7,9.56a.3.3,0,0,1,.35.18c.2.39.4.78.62,1.17C6.77,11.1,6.71,11.15,6.53,11.19ZM9.67,7.58c-1,.2-2,.39-3,.61-.24.06-.36,0-.45-.2a.75.75,0,0,0-.07-.12c-.23-.34-.26-.89-.63-1A2.69,2.69,0,0,0,4.32,7l-1.58.32c-.11,0-.23.06-.29-.07A11.26,11.26,0,0,1,2,6.15c-.11-.3.18-.28.35-.3l3.21-.54L7.68,5c.17,0,.26.07.35.18.58.7,1.16,1.41,1.75,2.11C10,7.45,9.93,7.53,9.67,7.58ZM10,4.83c-.19,0-.29-.09-.4-.21C9.12,4.08,8.6,3.55,8.11,3a.93.93,0,0,0-.95-.33c-1.75.28-3.51.49-5.26.77-.49.07-.43-.25-.46-.5s-.2-.54.31-.6C4.17,2,6.6,1.65,9,1.3a.55.55,0,0,1,.48.09c1.21.92,2.43,1.82,3.75,2.82Z"/></g></g></svg>